<?xml version="1.0" encoding="utf-8"?>
<!-- Generator: Adobe Illustrator 19.0.0, SVG Export Plug-In . SVG Version: 6.00 Build 0)  -->
<svg version="1.1" id="Capa_1" xmlns="http://www.w3.org/2000/svg" xmlns:xlink="http://www.w3.org/1999/xlink" x="0px" y="0px"
	 viewBox="0 0 115 14" style="enable-background:new 0 0 115 14;" xml:space="preserve">
<style type="text/css">
	.st0{fill:#FFFFFF;}
</style>
<g>
	<path class="st0" d="M0,2.5h5.9v1.9H2.1v1.1h3.6v1.9H2.1v2.7H0V2.5z"/>
	<path class="st0" d="M6.9,2.1h2.1v1.7H6.9V2.1z M6.9,4.2h2v5.9h-2V4.2z"/>
	<path class="st0" d="M10.1,4.3l1.6-0.1l0.2,0.6c0.3-0.3,1-0.6,1.8-0.7v2c-1.4,0-1.6,0.4-1.6,1.2v2.8h-2V4.3z"/>
	<path class="st0" d="M14.5,4.3l1.6-0.1l0.2,0.5c0.3-0.4,0.9-0.6,2-0.6c1.2,0,1.5,0.3,1.7,0.6c0.3-0.4,0.9-0.6,2.1-0.6
		c1.7,0,2,1,2,2.5v3.6h-2V7c0-0.6,0-1-0.8-1c-0.9,0-1,0.4-1,1v3.1h-2V7c0-0.6,0-1-0.8-1c-0.9,0-1,0.4-1,1v3.1h-2V4.3z"/>
	<path class="st0" d="M25,7.2c0-1.6,0.6-3.1,3.2-3.1c2.6,0,2.8,1.7,2.7,3.8h-3.9c0.1,0.5,0.4,0.7,1.2,0.7c0.9,0,1.4-0.2,1.8-0.5
		l1,1.3c-0.8,0.6-1.6,0.8-2.8,0.8C25.5,10.2,25,8.8,25,7.2z M26.9,6.7H29c0-0.5-0.1-0.9-0.9-0.9C27.3,5.8,27,6.1,26.9,6.7z"/>
	<path class="st0" d="M33.3,10.3h0.2c0.4,0,0.4-0.1,0.4-0.7V4.2h2v5.4c0,1.8-0.5,2.2-2.2,2.2h-0.4V10.3z M33.9,2.1h2.1v1.7h-2.1V2.1
		z"/>
	<path class="st0" d="M37.1,7.2v-3h2v3c0,0.7,0,1.2,0.9,1.2C41,8.4,41,8,41,7.2v-3h2v3c0,2.2-0.7,3-2.9,3
		C37.8,10.2,37.1,9.4,37.1,7.2z"/>
	<path class="st0" d="M44.1,4.3l1.6-0.1l0.2,0.5c0.3-0.3,0.9-0.6,2.1-0.6c1.7,0,2.1,1,2.1,2.5v3.6h-2V7c0-0.6-0.1-1-0.8-1
		c-0.9,0-1.1,0.4-1.1,1v3.1h-2V4.3z"/>
	<path class="st0" d="M50.8,4.2h1L52.2,3l1.6-0.3v1.6H55V6h-1.3v1.9c0,0.4,0.1,0.6,0.7,0.6H55v1.7c-0.3,0-0.6,0-1,0
		c-1.7,0-2.3-0.5-2.3-2V6h-0.9V4.2z"/>
	<path class="st0" d="M55.6,7.2c0-2,0.9-3.1,3.2-3.1c2.3,0,3.2,1.1,3.2,3.1s-0.9,3.1-3.2,3.1C56.5,10.2,55.6,9.1,55.6,7.2z M60,7.2
		c0-0.7-0.2-1.3-1.1-1.3c-1,0-1.1,0.5-1.1,1.3c0,0.7,0.2,1.3,1.1,1.3C59.8,8.5,60,7.9,60,7.2z"/>
	<path class="st0" d="M64.6,8.3c0-1.7,1.2-2,3.7-2h0.2c0-0.3-0.1-0.5-1-0.5c-0.7,0-1.3,0.3-1.7,0.5l-1-1.5c0.4-0.3,1.6-0.8,2.9-0.8
		c2.2,0,2.7,0.7,2.7,2.3V8c0,0.4,0,0.5,0.5,0.5v1.7c-0.1,0-0.4,0.1-0.9,0.1c-0.6,0-0.9-0.1-1.2-0.5c-0.3,0.4-0.9,0.6-1.9,0.6
		C64.9,10.2,64.6,9.4,64.6,8.3z M68.4,7.8V7.6h-0.1c-1.8,0-1.9,0.2-1.9,0.6c0,0.3,0.2,0.4,0.8,0.4C68.1,8.6,68.4,8.3,68.4,7.8z"/>
	<path class="st0" d="M71.8,8.2v-6h2v5.7c0,0.4,0.1,0.5,0.5,0.5c0.1,0,0.1,0,0.2,0v1.7c-0.2,0-0.5,0-0.9,0
		C72.5,10.1,71.8,9.7,71.8,8.2z"/>
	<path class="st0" d="M77.6,4.3l1.6-0.1l0.2,0.5c0.3-0.3,0.9-0.6,2.1-0.6c2.1,0,2.5,1.4,2.5,3.1c0,1.6-0.5,3-2.6,3
		c-0.9,0-1.4-0.2-1.6-0.5v2.1h-2V4.3z M81.8,7.2c0-0.7-0.1-1.3-1-1.3c-0.9,0-1.2,0.5-1.2,1.3s0.2,1.3,1.2,1.3
		C81.7,8.5,81.8,7.9,81.8,7.2z"/>
	<path class="st0" d="M84.7,7.2v-3h2v3c0,0.7,0,1.2,0.9,1.2c0.9,0,0.9-0.5,0.9-1.2v-3h2v3c0,2.2-0.7,3-2.9,3
		C85.4,10.2,84.7,9.4,84.7,7.2z"/>
	<path class="st0" d="M91.4,7.2c0-1.6,0.6-3.1,3.2-3.1c2.6,0,2.8,1.7,2.7,3.8h-3.9c0.1,0.5,0.4,0.7,1.2,0.7c0.9,0,1.4-0.2,1.8-0.5
		l1,1.3c-0.8,0.6-1.6,0.8-2.8,0.8C92,10.2,91.4,8.8,91.4,7.2z M93.4,6.7h2.1c0-0.5-0.1-0.9-0.9-0.9C93.7,5.8,93.5,6.1,93.4,6.7z"/>
	<path class="st0" d="M100,9.7l-0.4,0.5L98.2,10V2.1h2v2.4c0.3-0.3,0.9-0.5,1.8-0.5c2.1,0,2.5,1.4,2.5,3.1c0,1.6-0.5,3-2.7,3
		C100.8,10.2,100.2,10,100,9.7z M102.5,7.2c0-0.7-0.1-1.3-1-1.3c-0.9,0-1.2,0.5-1.2,1.3s0.2,1.3,1.2,1.3
		C102.3,8.5,102.5,7.9,102.5,7.2z"/>
	<path class="st0" d="M105.5,8.2v-6h2v5.7c0,0.4,0.1,0.5,0.5,0.5c0.1,0,0.1,0,0.2,0v1.7c-0.2,0-0.5,0-0.9,0
		C106.1,10.1,105.5,9.7,105.5,8.2z"/>
	<path class="st0" d="M108.6,7.2c0-2,0.9-3.1,3.2-3.1c2.3,0,3.2,1.1,3.2,3.1s-0.9,3.1-3.2,3.1C109.5,10.2,108.6,9.1,108.6,7.2z
		 M113,7.2c0-0.7-0.2-1.3-1.1-1.3c-1,0-1.1,0.5-1.1,1.3c0,0.7,0.2,1.3,1.1,1.3C112.8,8.5,113,7.9,113,7.2z"/>
</g>
</svg>
