<?xml version="1.0" encoding="utf-8"?>
<!-- Generator: Adobe Illustrator 19.0.0, SVG Export Plug-In . SVG Version: 6.00 Build 0)  -->
<svg version="1.1" id="Capa_1" xmlns="http://www.w3.org/2000/svg" xmlns:xlink="http://www.w3.org/1999/xlink" x="0px" y="0px"
	 viewBox="-54 424 890 154" style="enable-background:new -54 424 890 154;" xml:space="preserve">
<style type="text/css">
	.st0{fill:#FFFFFF;}
</style>
<g>
	<g>
		<path class="st0" d="M303.3,444.8c0-8.6-8.8-15.5-19.6-15.5c-10.8,0-19.6,6.9-19.6,15.5c0,3.6,1.6,7,4.3,9.7v0.1
			c0,0,0.1,0.1,0.2,0.1c0.9,0.9,2,1.7,3.1,2.4c0.4,0.3,0.8,0.6,1.1,0.8c1.3,1.1,2.6,2.4,2.8,3.6c0.2,1.2,0,2.6,0,3.2
			s-1.2,0.8,1.6,0.8c2.8,0,10.6-1.2,14.9-4.1c4.9-3.2,7.7-6.8,9.1-9C302.7,450.3,303.3,447.5,303.3,444.8"/>
		<path class="st0" d="M560.2,443.5c1.8,8.3-5.2,16.8-15.6,19c-10.4,2.2-20.3-2.7-22-11c-1.8-8.3,5.2-16.8,15.6-19
			C548.6,430.3,558.5,435.2,560.2,443.5"/>
		<path class="st0" d="M752.7,530.4c-13.2,12.8-30.3,16.7-38.1,8.6c-7.9-8.1-3.5-25,9.7-37.8s30.3-16.7,38.1-8.6
			C770.3,500.7,765.9,517.6,752.7,530.4 M279.3,524.1c-0.6,1.7-1.9,3.2-2.9,4.6c-1,1.4-2,2.4-2,2.4c-0.1,0.1-0.2,0.2-0.3,0.3
			c-14,13.1-31,17.5-38,10s-1.3-24.2,12.8-37.2c6.4-6,13.4-10.6,20-12.2c4.4-1.1,11.9-1.9,9.5,1.2c-2.3,3.1-6.5,9.4-6.9,14.8
			c-0.4,5.3,1.5,9.2,3.6,10.7C277.2,520.3,279.9,522.4,279.3,524.1 M831.4,525.9c0,0-11.7-0.2-13.2,0.4c-1.5,0.6-4.8,7.6-8.5,11.7
			c-6.1,6.9-14.3,13.2-19.1,15.5c-4.7,2.2-7.6-0.2-8.1-2.6c-0.8-3.8,2.5-8.1,5-12.3s28.6-49.6,33.6-56.6c4.9-6.9-0.4-6.8-0.4-6.8
			s-22.6,0.1-27.7-0.1c-8.5-0.2-9.3,0.4-9.4,2.8c-0.1,1.7,0.5,6.5-2.5,7.2c-2.1,0.5-5.6-1.8-7.7-4c-3.5-3.5-7.4-7-12.3-8.1
			c-4.9-1.1-26.5-3.3-48.9,7.7c-28.7,14.1-37.8,43.8-37.8,43.8s-9.6,7.3-21.7,14.3c-12.1,7-28.7,13.2-47.4,11.5
			s-18.1-22.5-14.2-34.2c4-11.7,17.1-21.5,28.1-25.8c11.7-4.6,24.8-1.4,29.2,2.8c4.8,4.7,2,11.7-3,13.2c-2.2,0.7-4.2,1.1-7-1.7
			c-2.8-2.8-9.3-4.2-13-3.6c-3,0.5-12.2,4.1-11.1,12.4c1.2,9,7.9,15.1,25.1,13.4c17.2-1.7,26.5-16.5,26-27.6
			c-0.5-11.7-14-22.3-27.4-24.4c-13.4-2-26.8-1-46.1,9.5c-14.9,8.1-29.7,29.3-33.3,32.9c-3.6,3.6-24.7,18.3-32.5,21.7
			c-7.7,3.4-9.3,0-9.8-2.3c-0.5-2.2,3.8-9.2,3.8-9.2s27.4-45.7,29.8-49.4c2.4-3.8-3.6-4.3-3.6-4.3s-27-0.4-30.2,0s-9.5,7-16.4,15.9
			c-7,8.9-31.5,31.1-42.9,41c-11.3,9.8-27,17-29.4,16c-2.5-0.9-1.1-5.3,0.7-9.6c1.9-4.4,6.8-12.3,12.1-20.8
			c5.3-8.5,14.6-25.3,14.2-33.6c-0.4-8.3-15.8-10.4-28.9-9.6c-13,0.7-39.9,21.7-42.3,24.5c-2.5,2.8-5.9,3.8-6.2,2.4
			c-0.4-1.3,0.9-3.9,1.9-5.3c0.9-1.3,8.9-15.7,9.3-17.9c0.4-2.3-3.4-2.5-3.4-2.5h-39.1c0,0-3.6,4.5-7.5,8.3
			c-3.9,3.7-5.7,5.7-16.6,13.5s-19.1,7.6-20.6,6.7s-0.5-2.4-0.9-6.3s-1.5-9-6.5-13.8s-18.8-8.3-37.3-6.3s-37.5,20-41.4,25.8
			c-3.9,5.8-8.2,9.6-17.1,18c-8.9,8.4-32.8,24.9-38.9,26.8c-6,1.9-7.2-3.6-6.9-7.2c0.3-3.5,7.6-14,12.8-20.6
			c5.3-6.7,14.9-17,17.9-26s-0.5-16.1-5.7-19.9s-14.8-1.2-18.2,0.4c-3.4,1.7-4,1.9-6.1,0.2c-2.2-1.7-4.6-6.8-12.4-10.6
			c-7.8-3.8-17.1,1.9-20.1,6.8s-2.1,12.4-1,17.3c1.1,5-2.8,6-38.2,31.8c-35.4,25.8-69.4,27.6-77.7,24.8s-22-15.6-10.5-38.8
			c11.5-23.3,39.2-31.4,49-33.8c9.8-2.3,23.4,2,23,12.8c-0.3,6.5-9.9,12.6-9.9,12.6s-2.7,1.5-3.6,1.9c-1,0.4-2.3,0.2-2.7-0.6
			c-0.5-0.8-0.2-2.2-1-4c-1.1-2.3-3.5-5-10.4-5.7c-6.7-0.6-14.1,0.9-19,6.3c-4.2,4.6-5,7.8-3.7,13.2c0.8,3.6,7.5,9.5,19.3,9.4
			c10.4,0,20.1-1.6,37.3-15.1c16.7-13,11.5-30.3,7.9-34.9c-4.6-6-17.5-15-50.7-9.1s-57.8,30.5-68.8,45.4c-9.7,13-15.5,37.8-3.4,51.3
			c12.1,13.6,32.7,21.5,68.3,16.1c35.7-5.5,74.7-41.9,87.2-54.6c12.5-12.6,20-20,20-20s4.2-0.5,7.4,0.2c3.2,0.8,0,4.5,0,4.5
			s-10,12.8-17,21.3s-18.1,24.5-13.2,39s22.3,11.3,37.4,6.8c15.1-4.5,48.3-29.6,50.2-30.9c1.9-1.3,3.4,1.1,3.4,1.1s-0.2,5.3,0,7.9
			c0.2,2.6,1.9,10.2,6.1,14.7s13.2,10.2,35.8,7.6c22.6-2.7,44.7-31,47.4-34.5c2.6-3.6,8.1-11.7,9.8-11.9c1.7-0.2,9.3-2.6,12.7-4
			c3.4-1.3,10.6-7,14.9-9c4.3-2.1-0.4,8.3-0.4,8.3s-22.4,44.2-24.6,48.5c-2.3,4.3-0.8,4-0.8,4s31,0.2,34,0s4.7-3.2,4.7-3.2
			s15.1-24.4,26.5-36.8c6.5-7.1,29.4-28.1,38.7-33.6c9.3-5.5,5.3,3,5.3,3s-17.6,29.4-20.3,33.6c-2.6,4.2-10,17-6.4,26
			c3.9,9.6,13.3,12.3,34.5,9.5c26.7-3.6,55.4-34.9,59.7-37.5c4.3-2.6-0.1,6.5-1.9,10c-2.1,4.1-5.9,9.4-2.6,19.1
			c3.7,10.9,20.5,8.7,29.9,5.8c9-2.8,41.9-22.7,47.2-27c5.3-4.4,7-0.5,7-0.5s3.4,11.9,6.6,16s11.5,14.2,34.9,15.9
			c26.4,1.9,54.2-17,65.1-24c11-7,11.1-4.7,11.9-3.8c0.8,1,1.9,8.5,5.3,13.6c3.4,5.1,10.8,10.5,25.7,11.3
			c14.9,0.7,31.5-11.1,34.5-13.4c3-2.2,4.9-0.6,4.9-0.6s0.2,4.5,1.9,7.9s8.5,8.3,15.5,9.2c7,1,18.9,0,32.3-6.2
			c13.4-6.2,28.1-23.8,34-31C835.5,526.1,831.4,525.9,831.4,525.9"/>
	</g>
</g>
</svg>
