<svg id="Modo_de_aislamiento" xmlns="http://www.w3.org/2000/svg" viewBox="0 0 568 200.5"><style>.st0{fill:#E20613;} .st1{fill:#FFFFFF;}</style><path class="st0" d="M60.4 45.4c1.5-.9 18.5-12.4 20-13.3C130.7 2.2 192.2 6.5 212 34.9c25.9 37 5.7 118.7-99.6 142.4-48.7 11-78.1-8.4-88.5-25.1-11.1-17.8-3.4-43.3 5.8-55.7 10.5-14.1 34.4-36.8 66.1-42.4 31.7-5.6 43.1 2.7 48.5 9.7 3.4 4.4 7.5 22.7-9 36.4-16 13.4-25.8 14.5-35.8 13.8-11.2-.9-16.9-7.6-17.7-11-1.2-5.1-.5-8.1 3.5-12.6 4.6-5.2 11.7-6.6 18.1-6 6.5.6 8.8 3.2 9.9 5.4.8 1.7.5 3.1 1 3.8.5.7 1.7.9 2.6.6.9-.4 3.4-1.8 3.4-1.8s9.1-5.8 9.4-12c.4-10.4-10.4-14-21.9-12.2-12 1.9-36.9 9.7-48 31.9-11 22.2-.7 32.7 10.6 37.3 5.7 2.3 18.4 2.7 33.9-1.9l.7-.3c8.5-2.4 17.5-6.9 25.8-11.9 35-20.8 51.8-57.2 37.6-81.2-14.3-24-55.1-24.7-91.5-5.4l-16.5 8.7z"/><path class="st1" d="M272.3 104.9c-16.2 0-32.2-10.5-32.2-30.4 0-19.7 16.1-30.3 32.2-30.3 8 0 14.2 2.1 17.9 4.7l-.5 17c-3.7-3.2-8.9-5-15.5-5-9.7 0-15.1 6.7-15.1 14.4 0 6.6 5 13.4 14 13.4 1.3 0 2.3-.1 3.5-.4v-4.1H269V69.6h24.9v29.6c-4.2 3.4-11.4 5.7-21.6 5.7zM333.6 77.5c-7.6 0-12.5 4.9-12.5 12.9v12.9h-18.3V62.5h16.7l.4 6.4c2.9-5.3 7.4-7.4 14.7-7.4l.5 16.1c-.1 0-.6-.1-1.5-.1zM368.6 103.3l-.4-4.1c-1.5 2.8-6.7 5.3-12 5.3-8.9 0-14.7-5.8-14.7-14.7V62.5h18.3v22.4c0 1.7 1.5 2.7 3 2.7 1.4 0 3.5-.8 3.5-3.2v-22h18.3v40.8h-16zM415.8 104.9c-2.4 0-3.9-.2-5.1-.8v20h-17.5V62.5H407l.4 2.6c1.6-2.6 5.6-3.9 9.7-3.9 10.8 0 21.2 8.4 21.2 20.6 0 14.2-9.6 23.1-22.5 23.1zm-.6-27.8c-1.6 0-3.2.4-4.5 1.3V88c1 .8 2.5 1.4 4.5 1.4 3.4 0 5.9-2.8 5.9-6.1 0-3.4-2.4-6.2-5.9-6.2zM467.4 104.9c-12.5 0-22.8-9.1-22.8-22.1 0-12.9 10.3-22 22.8-22 12.3 0 22.8 9.1 22.8 22 0 13-10.5 22.1-22.8 22.1zm0-28.7c-3 0-5.5 3.1-5.5 6.7s2.5 6.7 5.5 6.7 5.5-3.1 5.5-6.7c0-3.7-2.5-6.7-5.5-6.7zM287 131.9c-3.1-2-6.4-3.3-12.9-3.3-9.6 0-14.4 6.8-14.4 13.6s5.1 13.6 15.4 13.6c5.5 0 9.6-1.4 12.4-3.3l-.6 16.8c-2.8 2-8.6 3.3-15.1 3.3-15.7 0-31.6-10.4-31.6-30.4 0-19.7 16-30.4 31.6-30.4 6.5 0 12.3 1.3 15.8 3.3l-.6 16.8zM326.4 145.1c-7.6 0-12.5 4.9-12.5 12.9v12.9h-18.3v-40.8h16.7l.4 6.4c2.9-5.3 7.4-7.4 14.7-7.4l.5 16.1c-.2 0-.6-.1-1.5-.1zM356.3 172.5c-12.5 0-22.8-9.1-22.8-22.1 0-12.9 10.3-22 22.8-22 12.3 0 22.8 9.1 22.8 22 0 13-10.5 22.1-22.8 22.1zm-2.1-47l-6.2-6.2c6.1-1.7 14-5.2 19.2-10.4l2.3 9.9c-5.2 3.7-9.5 5.3-15.3 6.7zm2.1 18.3c-3 0-5.5 3.1-5.5 6.7s2.5 6.7 5.5 6.7 5.5-3.1 5.5-6.7c0-3.7-2.5-6.7-5.5-6.7zM411.1 170.9v-22.4c0-1.7-1.5-2.7-3-2.7-1.4 0-3.5.8-3.5 3.2v22h-18.3v-40.8h16l.4 4c1.5-2.8 6.7-5.3 12-5.3 8.9 0 14.7 5.8 14.7 14.7V171h-18.3zM437.9 170.9v-40.8h18.5v40.8h-18.5zm9.2-46.2c-2.8 0-8.7-5.9-8.7-8.6 0-2.8 5.9-8.6 8.7-8.6 2.8 0 8.6 5.9 8.6 8.6.1 2.7-5.8 8.6-8.6 8.6zM499.3 147c-2.5-1.3-5.7-2.2-9.2-2.2-4.8 0-7.6 2.2-7.6 5.8 0 3.5 3.4 5.8 8.5 5.8 3.5 0 6.2-.7 8.6-2.1l-.5 15.6c-2.3 1.4-6.7 2.5-12 2.5-12.8 0-23.2-8.6-23.2-22 0-13.7 10.4-22.1 22.8-22.1 5.4 0 10 1.1 12.9 2.7l-.3 16zM545.4 172.5c-4.9 0-8.5-1.1-10.8-4.1-2.7 2.5-7.1 4.1-11.5 4.1-8.4 0-15.9-4.5-15.9-14.3 0-7.1 5.3-12.5 14.1-13.4l6.9-.7v-.5c0-1.6-1.5-2.3-5.1-2.3-5.2 0-10.3 1.2-12.6 2.4l-.5-12.9c2.5-1.2 8.8-2.3 14.1-2.3 13.2 0 20.7 6.6 20.7 17.9v7.7c0 3.6 1.6 5.6 4.8 5.9l-4.2 12.5zm-16.5-18.6l-3.4.3c-2.9.3-4 2.3-4 4.3 0 1.6 1.3 2.9 3.2 2.9 2.3 0 4.1-1.6 4.1-3.7v-3.8z"/></svg>